<?xml version="1.0" standalone="no"?>
<!DOCTYPE svg PUBLIC "-//W3C//DTD SVG 20010904//EN"
 "http://www.w3.org/TR/2001/REC-SVG-20010904/DTD/svg10.dtd">
<svg version="1.0" xmlns="http://www.w3.org/2000/svg"
 width="446.000000pt" height="450.000000pt" viewBox="0 0 446.000000 450.000000"
 preserveAspectRatio="xMidYMid meet">

<g transform="translate(0.000000,450.000000) scale(0.100000,-0.100000)"
fill="#000000" stroke="none">
<path d="M1766 3894 c-114 -36 -184 -108 -221 -227 -72 -227 25 -491 214 -584
78 -39 174 -39 246 -1 125 65 195 198 195 374 0 157 -34 258 -120 348 -85 90
-206 125 -314 90z m57 -136 c-52 -53 -62 -69 -65 -103 -3 -34 -8 -42 -36 -54
-42 -19 -46 -37 -40 -175 3 -61 2 -120 -2 -131 -7 -17 -11 -13 -29 26 -51 113
-55 275 -9 364 43 83 118 134 198 135 l44 0 -61 -62z"/>
<path d="M2505 3896 c-128 -40 -206 -127 -246 -272 -28 -103 -24 -262 10 -347
54 -138 162 -217 296 -217 92 0 155 30 226 108 175 191 170 529 -10 671 -47
37 -144 71 -199 70 -21 0 -55 -6 -77 -13z m105 -79 c0 -2 -31 -29 -70 -61 -68
-55 -70 -59 -70 -102 0 -41 -3 -46 -31 -56 -42 -14 -49 -40 -50 -181 0 -67 -4
-130 -8 -140 -6 -17 -8 -16 -18 6 -40 88 -46 243 -13 348 24 80 65 130 132
163 42 21 128 36 128 23z"/>
<path d="M1338 3587 c-25 -20 -28 -45 -9 -68 22 -27 58 -18 67 16 10 40 -30
75 -58 52z"/>
<path d="M3050 3576 c-28 -35 11 -93 48 -70 35 22 22 84 -18 84 -10 0 -23 -7
-30 -14z"/>
<path d="M1203 3390 c-92 -19 -174 -85 -214 -175 -34 -74 -38 -220 -11 -312
37 -122 122 -226 220 -271 77 -36 194 -37 265 -3 92 43 154 131 178 255 22
106 -23 268 -101 366 -50 63 -134 121 -198 136 -63 15 -78 16 -139 4z m57
-122 c-17 -24 -49 -65 -70 -93 -63 -79 -72 -106 -68 -194 2 -57 -1 -81 -13
-98 l-16 -23 -16 35 c-42 88 -43 213 -1 300 31 67 106 114 182 115 l33 0 -31
-42z"/>
<path d="M3098 3387 c-114 -33 -229 -149 -267 -271 -54 -175 -29 -322 74 -429
35 -37 57 -50 115 -68 82 -25 126 -22 214 11 162 62 277 290 246 487 -32 200
-203 320 -382 270z m93 -94 c-19 -9 -69 -52 -113 -94 -92 -90 -118 -142 -144
-277 -21 -110 -35 -103 -42 20 -4 67 -1 89 23 153 48 132 148 215 260 215 l50
0 -34 -17z"/>
<path d="M2155 3045 c-282 -78 -623 -386 -788 -715 -90 -179 -86 -393 10 -570
83 -152 238 -279 414 -338 128 -42 280 -57 514 -49 248 9 383 44 527 138 296
195 389 529 232 840 -99 198 -310 431 -509 563 -183 121 -298 159 -400 131z
m198 -117 c37 -17 67 -34 67 -38 0 -4 -62 -22 -137 -40 -309 -73 -422 -129
-472 -234 -39 -79 -23 -156 44 -215 38 -33 134 -82 226 -115 60 -21 57 -38
-20 -115 -61 -61 -117 -93 -256 -145 -173 -65 -328 -133 -352 -154 -22 -19
-24 -19 -32 -3 -19 35 -34 155 -28 225 12 137 69 261 194 422 119 154 320 323
481 403 116 58 171 60 285 9z m216 -127 l35 -29 -80 -17 c-207 -44 -304 -81
-343 -131 -25 -32 -26 -45 -6 -84 20 -39 45 -51 200 -95 210 -60 285 -108 337
-212 28 -57 30 -70 25 -128 -10 -128 -49 -160 -427 -349 -217 -109 -291 -135
-383 -136 l-48 0 19 25 c21 27 19 63 -4 72 -7 2 -35 -8 -62 -23 l-49 -28 -54
18 c-30 10 -76 27 -102 39 l-49 22 74 41 c72 40 160 82 391 184 203 90 273
155 264 240 -8 70 -53 105 -221 171 -156 60 -206 97 -206 150 0 98 91 154 355
219 94 23 195 50 225 60 72 24 70 24 109 -9z m243 -240 c43 -51 76 -96 73 -99
-3 -4 -10 0 -15 8 -23 37 -44 60 -55 60 -7 0 -18 13 -25 29 -10 25 -16 28 -33
22 -26 -9 -42 -8 -81 4 -56 16 -84 -61 -29 -82 9 -3 24 -1 34 5 11 7 20 8 24
2 3 -6 0 -10 -8 -10 -18 0 -31 -30 -14 -31 9 0 9 -2 -1 -6 -8 -3 -2 -18 20
-46 32 -40 24 -43 -18 -5 -32 28 -173 93 -234 108 -110 25 -155 39 -174 53
-19 14 -19 15 12 31 17 9 76 25 129 36 54 11 134 31 178 44 l80 24 29 -27 c15
-14 64 -68 108 -120z"/>
<path d="M1627 2342 c-37 -40 -9 -102 46 -102 33 0 70 45 61 74 -13 46 -76 62
-107 28z"/>
<path d="M1842 2194 c-43 -30 -18 -94 37 -94 34 0 61 28 61 63 0 44 -55 61
-98 31z"/>
<path d="M1590 2113 c-38 -14 -53 -70 -25 -93 8 -7 27 -12 42 -12 50 0 72 67
31 96 -24 17 -25 17 -48 9z"/>
<path d="M2006 2601 c-37 -41 21 -141 81 -141 43 0 46 9 13 47 -19 21 -30 45
-30 63 0 19 -7 33 -19 40 -25 13 -25 13 -45 -9z"/>
<path d="M2392 2348 c-20 -20 -14 -33 27 -66 40 -32 65 -39 90 -23 17 11 2 40
-40 75 -33 28 -58 33 -77 14z"/>
<path d="M2482 2188 c-11 -14 -29 -148 -20 -148 3 0 19 5 36 11 36 12 55 51
50 105 -3 33 -7 39 -29 42 -14 2 -31 -3 -37 -10z"/>
<path d="M2140 1879 c-85 -38 -141 -80 -138 -102 6 -42 30 -42 120 2 103 50
124 70 108 100 -13 26 -33 26 -90 0z"/>
<path d="M1060 2529 c-9 -16 -8 -26 5 -45 20 -31 52 -31 67 1 22 48 -48 90
-72 44z"/>
<path d="M3321 2528 c-21 -57 46 -97 71 -42 15 33 1 58 -36 62 -20 3 -28 -2
-35 -20z"/>
<path d="M3243 2481 c3 -14 -2 -21 -19 -25 -32 -8 -52 -49 -34 -71 7 -8 23
-15 36 -15 19 0 24 7 30 38 4 20 11 42 15 48 13 16 0 44 -18 44 -10 0 -14 -7
-10 -19z"/>
<path d="M3438 2434 c-14 -29 -2 -57 26 -62 42 -8 64 58 27 78 -30 15 -40 12
-53 -16z"/>
<path d="M942 2438 c-7 -7 -12 -21 -12 -33 0 -50 57 -61 88 -17 18 25 18 28 2
45 -19 20 -60 23 -78 5z"/>
<path d="M1150 2432 l-21 -17 21 -28 c28 -36 66 -36 82 -1 11 23 10 29 -11 45
-29 24 -43 24 -71 1z"/>
<path d="M1050 2398 c0 -10 -8 -33 -17 -53 -16 -34 -16 -36 3 -50 24 -18 75
-19 99 -1 19 14 19 15 -5 63 -13 26 -24 51 -22 55 1 4 -12 6 -28 5 -21 -1 -30
-7 -30 -19z"/>
<path d="M3295 2380 c-45 -72 -30 -100 55 -100 31 0 61 5 68 12 18 18 14 59
-8 96 -16 26 -26 32 -55 32 -30 0 -38 -6 -60 -40z"/>
<path d="M1000 2113 c-83 -5 -106 -23 -80 -63 7 -12 28 -14 97 -12 121 4 163
16 163 46 0 37 -7 38 -180 29z"/>
<path d="M3262 2108 c-20 -20 -14 -48 13 -58 13 -5 72 -12 129 -16 l105 -7 12
27 c9 20 10 29 1 38 -25 25 -238 38 -260 16z"/>
<path d="M1068 1912 c-77 -31 -111 -56 -106 -79 6 -33 33 -37 84 -14 126 56
139 65 139 91 0 35 -35 36 -117 2z"/>
<path d="M3247 1933 c-4 -3 -7 -17 -7 -29 0 -20 18 -32 117 -79 109 -52 117
-54 135 -39 24 23 23 50 -4 68 -28 18 -202 86 -221 86 -7 0 -17 -3 -20 -7z"/>
<path d="M1157 1725 c-75 -62 -100 -95 -91 -119 12 -33 49 -16 128 58 71 66
77 75 67 95 -7 11 -17 21 -24 21 -7 0 -43 -25 -80 -55z"/>
<path d="M3170 1759 c-10 -18 -1 -30 76 -110 86 -88 108 -101 132 -77 24 24
11 47 -73 127 -87 84 -116 97 -135 60z"/>
<path d="M1257 1561 c-61 -64 -68 -84 -37 -101 16 -9 26 -5 58 24 53 49 80 99
63 120 -8 9 -17 16 -21 16 -4 0 -32 -27 -63 -59z"/>
<path d="M3081 1602 c-12 -23 6 -65 54 -119 39 -46 55 -52 75 -28 19 23 5 58
-46 114 -49 54 -68 62 -83 33z"/>
<path d="M3458 1238 c-10 -8 -10 -11 0 -15 6 -2 12 -20 12 -39 0 -24 5 -34 15
-34 10 0 15 11 15 35 0 19 5 35 10 35 6 0 10 -16 10 -35 0 -33 12 -46 25 -25
3 5 12 7 20 3 9 -3 15 1 15 8 0 8 5 6 13 -6 20 -26 30 -4 22 45 -7 41 -30 54
-42 24 -5 -13 -7 -13 -14 -2 -10 15 -81 19 -101 6z"/>
<path d="M3131 1224 c-20 -14 -21 -23 -21 -189 0 -176 7 -218 38 -230 8 -3 23
2 33 11 15 14 19 32 19 91 l0 73 71 0 71 0 -7 -63 c-6 -54 -4 -65 15 -90 26
-32 34 -33 60 -7 19 19 20 32 20 200 -1 157 -4 182 -20 202 -15 19 -21 21 -43
11 -24 -11 -26 -18 -29 -85 l-3 -73 -67 -3 -67 -3 -3 77 c-3 68 -5 78 -24 85
-14 5 -29 2 -43 -7z"/>
<path d="M1042 1218 c-8 -8 -12 -67 -12 -198 0 -168 2 -189 18 -203 24 -22 35
-21 55 1 11 12 17 36 17 70 l0 52 40 0 c120 0 198 120 137 211 -41 60 -80 79
-166 79 -47 0 -82 -5 -89 -12z m170 -95 c41 -37 15 -89 -49 -99 l-43 -7 0 62
0 61 37 0 c20 0 45 -7 55 -17z"/>
<path d="M1441 1165 c-17 -36 -31 -68 -31 -71 0 -3 -22 -57 -50 -120 -53 -123
-58 -145 -35 -164 23 -19 55 -1 78 46 l21 45 70 -3 c70 -3 70 -3 80 -36 12
-44 47 -68 75 -52 29 15 26 40 -13 129 -19 42 -50 114 -71 161 -66 154 -78
160 -124 65z m64 -141 c8 -20 15 -37 15 -38 0 -1 -15 -2 -33 -2 l-34 0 15 38
c8 21 17 38 18 38 2 0 11 -16 19 -36z"/>
<path d="M1647 1223 c-4 -3 -7 -17 -7 -29 0 -35 108 -366 125 -383 13 -14 17
-13 33 4 10 11 34 59 53 107 19 48 37 84 40 80 3 -4 21 -47 40 -95 35 -92 58
-118 79 -92 6 8 38 96 70 196 62 194 64 219 15 219 -32 0 -48 -27 -74 -124
-12 -44 -25 -86 -30 -94 -5 -10 -21 22 -47 99 -42 121 -62 145 -82 92 -6 -15
-26 -70 -45 -122 l-34 -93 -26 94 c-40 143 -42 148 -75 148 -16 0 -32 -3 -35
-7z"/>
<path d="M2193 1222 c-14 -9 -30 -344 -18 -381 10 -34 43 -46 66 -25 14 13 19
31 19 71 l0 53 38 0 c123 1 202 119 140 210 -41 60 -71 75 -156 78 -42 1 -83
-1 -89 -6z m159 -99 c41 -37 15 -89 -49 -99 l-43 -7 0 62 0 61 37 0 c20 0 45
-7 55 -17z"/>
<path d="M2576 1163 c-56 -113 -137 -315 -132 -329 3 -7 13 -17 24 -23 26 -14
57 9 72 54 l12 35 73 0 73 0 12 -35 c20 -61 80 -82 95 -34 4 12 -13 62 -43
132 -28 61 -62 141 -77 177 -47 114 -61 117 -109 23z m84 -175 c0 -5 -18 -8
-40 -8 l-40 0 21 42 21 42 19 -35 c10 -18 18 -37 19 -41z"/>
<path d="M2783 1223 c-7 -2 -13 -18 -13 -33 0 -35 29 -54 71 -48 21 3 29 0 30
-11 1 -9 4 -81 8 -160 5 -130 8 -145 27 -157 16 -11 23 -12 36 -1 14 10 17 38
20 169 l3 158 32 0 c61 0 94 31 73 70 -10 19 -21 20 -143 19 -73 0 -138 -3
-144 -6z"/>
</g>
</svg>
